<?xml version="1.0" encoding="utf-8"?>
<!-- Generator: Adobe Illustrator 25.2.0, SVG Export Plug-In . SVG Version: 6.00 Build 0)  -->
<svg version="1.1" id="_x33_805a6c0-1c3f-44ce-9879-1a685de3f73b"
	 xmlns="http://www.w3.org/2000/svg" xmlns:xlink="http://www.w3.org/1999/xlink" x="0px" y="0px" viewBox="0 0 873 765.8"
	 style="enable-background:new 0 0 873 765.8;" xml:space="preserve">
<style type="text/css">
	.st0{opacity:0.5;}
	.st1{fill:url(#SVGID_1_);}
	.st2{fill:#FFFFFF;}
	.st3{fill:url(#SVGID_2_);}
	.st4{fill:#F5F5F5;}
	.st5{fill:url(#SVGID_3_);}
	.st6{fill:#5E5E5E;}
	.st7{fill:#E0E0E0;}
	.st8{opacity:0.3;fill:#5E5E5E;enable-background:new    ;}
	.st9{fill:url(#SVGID_4_);}
	.st10{opacity:0.3;}
	.st11{fill:none;stroke:#3AD29F;stroke-width:3;stroke-miterlimit:10;}
	.st12{fill:none;stroke:#3AD29F;stroke-width:3;stroke-miterlimit:10;stroke-dasharray:11.69,11.69;}
	.st13{fill:none;stroke:#3AD29F;stroke-width:3;stroke-miterlimit:10;stroke-dasharray:12.8,12.8;}
</style>
<g class="st0">
	
		<linearGradient id="SVGID_1_" gradientUnits="userSpaceOnUse" x1="710.935" y1="0.15" x2="710.935" y2="448.13" gradientTransform="matrix(1 0 0 -1 0 765.89)">
		<stop  offset="0" style="stop-color:#808080;stop-opacity:0.25"/>
		<stop  offset="0.54" style="stop-color:#808080;stop-opacity:0.12"/>
		<stop  offset="1" style="stop-color:#808080;stop-opacity:0.1"/>
	</linearGradient>
	<rect x="548.8" y="317.8" class="st1" width="324.2" height="448"/>
</g>
<rect x="553" y="321.1" class="st2" width="316" height="438.1"/>
<g class="st0">
	
		<linearGradient id="SVGID_2_" gradientUnits="userSpaceOnUse" x1="680.995" y1="16.24" x2="680.995" y2="464.22" gradientTransform="matrix(1 0 0 -1 0 765.89)">
		<stop  offset="0" style="stop-color:#808080;stop-opacity:0.25"/>
		<stop  offset="0.54" style="stop-color:#808080;stop-opacity:0.12"/>
		<stop  offset="1" style="stop-color:#808080;stop-opacity:0.1"/>
	</linearGradient>
	<rect x="518.9" y="301.7" class="st3" width="324.2" height="448"/>
</g>
<rect x="523" y="305" class="st4" width="316" height="438.1"/>
<g class="st0">
	
		<linearGradient id="SVGID_3_" gradientUnits="userSpaceOnUse" x1="652.835" y1="30.98" x2="652.835" y2="478.96" gradientTransform="matrix(1 0 0 -1 0 765.89)">
		<stop  offset="0" style="stop-color:#808080;stop-opacity:0.25"/>
		<stop  offset="0.54" style="stop-color:#808080;stop-opacity:0.12"/>
		<stop  offset="1" style="stop-color:#808080;stop-opacity:0.1"/>
	</linearGradient>
	<rect x="490.7" y="286.9" class="st5" width="324.2" height="448"/>
</g>
<rect x="494.9" y="290.2" class="st2" width="316" height="438.1"/>
<rect x="523.9" y="363.4" class="st6" width="87.6" height="8"/>
<rect x="523.9" y="391.5" class="st7" width="257.4" height="8"/>
<rect x="523.9" y="419.7" class="st7" width="200.2" height="8"/>
<rect x="523.9" y="447.8" class="st7" width="236.4" height="8"/>
<rect x="551.2" y="476" class="st7" width="209.2" height="8"/>
<rect x="571.3" y="504.1" class="st8" width="164.9" height="8"/>
<rect x="551.2" y="532.3" class="st7" width="205.1" height="8"/>
<rect x="523.9" y="560.4" class="st7" width="257.4" height="8"/>
<rect x="523.9" y="588.6" class="st7" width="257.4" height="8"/>
<rect x="523.9" y="616.8" class="st7" width="257.4" height="8"/>
<rect x="523.9" y="644.9" class="st7" width="257.4" height="8"/>
<g class="st0">
	
		<linearGradient id="SVGID_4_" gradientUnits="userSpaceOnUse" x1="162.115" y1="317.91" x2="162.115" y2="765.89" gradientTransform="matrix(1 0 0 -1 0 765.89)">
		<stop  offset="0" style="stop-color:#808080;stop-opacity:0.25"/>
		<stop  offset="0.54" style="stop-color:#808080;stop-opacity:0.12"/>
		<stop  offset="1" style="stop-color:#808080;stop-opacity:0.1"/>
	</linearGradient>
	<rect y="0" class="st9" width="324.2" height="448"/>
</g>
<rect x="4.1" y="3.3" class="st2" width="316" height="438.1"/>
<rect x="58.7" y="160.9" class="st7" width="210.9" height="8"/>
<rect x="60.5" y="189" class="st7" width="209.2" height="8"/>
<rect x="80.6" y="217.2" class="st7" width="164.9" height="8"/>
<rect x="60.5" y="245.4" class="st7" width="205.1" height="8"/>
<rect x="58.7" y="273.5" class="st7" width="209.2" height="8"/>
<rect x="58.7" y="301.7" class="st7" width="209.2" height="8"/>
<rect x="58.7" y="329.8" class="st7" width="209.2" height="8"/>
<rect x="58.7" y="358" class="st7" width="209.2" height="8"/>
<rect x="61.6" y="65.7" class="st6" width="56.3" height="48.3"/>
<rect x="158.1" y="73.7" class="st7" width="104.6" height="8"/>
<rect x="158.1" y="101.9" class="st8" width="104.6" height="8"/>
<g class="st10">
	<line class="st11" x1="366.1" y1="101.9" x2="372.1" y2="101.9"/>
	<line class="st12" x1="383.8" y1="101.9" x2="611.7" y2="101.9"/>
	<polyline class="st11" points="617.6,101.9 623.6,101.9 623.6,107.9 	"/>
	<line class="st13" x1="623.6" y1="120.7" x2="623.6" y2="242.3"/>
	<line class="st11" x1="623.6" y1="248.7" x2="623.6" y2="254.7"/>
</g>
<g class="st10">
	<line class="st11" x1="458.7" y1="636.9" x2="452.7" y2="636.9"/>
	<line class="st12" x1="441" y1="636.9" x2="213.1" y2="636.9"/>
	<polyline class="st11" points="207.2,636.9 201.2,636.9 201.2,630.9 	"/>
	<line class="st13" x1="201.2" y1="618.1" x2="201.2" y2="496.4"/>
	<line class="st11" x1="201.2" y1="490" x2="201.2" y2="484"/>
</g>
<path class="st8" d="M513.9,166.1c-1.7-0.8-2.6-2.7-2-4.4c0-0.1,0.1-0.3,0.1-0.4l0,0c0.1-1-0.7-1.9-1.7-2c-0.6,0-1.2,0.2-1.6,0.7
	l0,0c-0.1,0.1-0.1,0.2-0.2,0.4c-0.8,1.7-2.7,2.6-4.4,2c-0.1,0-0.3-0.1-0.4-0.1l0,0c-1-0.1-1.9,0.7-2,1.7c0,0.6,0.2,1.2,0.7,1.6l0,0
	c0.1,0.1,0.2,0.1,0.4,0.2c1.7,0.8,2.6,2.7,2,4.4c0,0.1-0.1,0.3-0.1,0.4l0,0c-0.1,1,0.7,1.9,1.7,2c0.6,0,1.2-0.2,1.6-0.7l0,0
	c0.1-0.1,0.1-0.2,0.2-0.4c0.8-1.7,2.7-2.6,4.4-2c0.1,0,0.3,0.1,0.4,0.1l0,0c1,0.1,1.9-0.7,2-1.7c0-0.6-0.2-1.2-0.7-1.6l0,0
	C514.2,166.3,514.1,166.2,513.9,166.1z"/>
<path class="st8" d="M385.1,257.3c-3.6-1.6-5.5-5.6-4.3-9.4c0.1-0.3,0.1-0.6,0.2-0.9l0,0c0.2-2.1-1.5-4-3.6-4.1
	c-1.3-0.1-2.6,0.5-3.4,1.6l0,0c-0.2,0.2-0.3,0.5-0.4,0.8c-1.6,3.6-5.6,5.5-9.4,4.3c-0.3-0.1-0.6-0.1-0.9-0.2l0,0
	c-2.1-0.2-4,1.5-4.1,3.6c-0.1,1.3,0.5,2.6,1.6,3.4l0,0c0.2,0.2,0.5,0.3,0.8,0.4c3.6,1.6,5.5,5.6,4.3,9.4c-0.1,0.3-0.1,0.6-0.2,0.9
	l0,0c-0.2,2.1,1.5,4,3.6,4.1c1.3,0.1,2.6-0.5,3.4-1.6l0,0c0.2-0.2,0.3-0.5,0.4-0.8c1.6-3.6,5.6-5.5,9.4-4.3c0.3,0.1,0.6,0.1,0.9,0.2
	l0,0c2.1,0.2,4-1.5,4.1-3.6c0.1-1.3-0.5-2.6-1.6-3.4l0,0C385.7,257.5,385.4,257.4,385.1,257.3z"/>
<path class="st8" d="M464.1,519.5c-3.9,0.8-7.7-1.5-8.9-5.2c-0.1-0.3-0.2-0.5-0.3-0.8l0,0c-1.1-1.8-3.5-2.4-5.3-1.3
	c-1.1,0.7-1.8,1.9-1.9,3.2l0,0c0,0.3,0,0.6,0.1,0.9c0.8,3.9-1.5,7.7-5.2,8.9c-0.3,0.1-0.5,0.2-0.8,0.3l0,0c-1.8,1.1-2.4,3.5-1.3,5.3
	c0.7,1.1,1.9,1.8,3.2,1.9l0,0c0.3,0,0.6,0,0.9-0.1c3.9-0.8,7.7,1.5,8.9,5.2c0.1,0.3,0.2,0.5,0.3,0.8l0,0c1.1,1.8,3.5,2.4,5.3,1.3
	c1.1-0.7,1.8-1.9,1.9-3.2l0,0c0-0.3,0-0.6-0.1-0.9c-0.8-3.9,1.5-7.7,5.2-8.9c0.3-0.1,0.5-0.2,0.8-0.3l0,0c1.8-1.1,2.4-3.5,1.3-5.3
	c-0.7-1.1-1.9-1.8-3.2-1.9l0,0C464.7,519.4,464.4,519.4,464.1,519.5z"/>
<path class="st8" d="M306,571.1c-1.7-0.8-2.6-2.7-2-4.4c0-0.1,0.1-0.3,0.1-0.4l0,0c0.1-1-0.7-1.9-1.7-2c-0.6,0-1.2,0.2-1.6,0.7l0,0
	c-0.1,0.1-0.1,0.2-0.2,0.4c-0.8,1.7-2.7,2.6-4.4,2c-0.1,0-0.3-0.1-0.4-0.1l0,0c-1-0.1-1.9,0.7-2,1.7c0,0.6,0.2,1.2,0.7,1.6l0,0
	c0.1,0.1,0.2,0.1,0.4,0.2c1.7,0.8,2.6,2.7,2,4.4c0,0.1-0.1,0.3-0.1,0.4l0,0c-0.1,1,0.7,1.9,1.7,2c0.6,0,1.2-0.2,1.6-0.7l0,0
	c0.1-0.1,0.1-0.2,0.2-0.4c0.8-1.7,2.7-2.6,4.4-2c0.1,0,0.3,0.1,0.4,0.1l0,0c1,0.1,1.9-0.7,2-1.7c0-0.6-0.2-1.2-0.7-1.6l0,0
	C306.2,571.3,306.1,571.2,306,571.1z"/>
</svg>
